<svg width="40" height="40" viewBox="0 0 40 40" fill="none" xmlns="http://www.w3.org/2000/svg">
<g clip-path="url(#clip0_511_14953)">
<path d="M34.038 14.0579C34.038 6.06186 27.3174 -0.405288 19.2396 0.0198595C11.9222 0.445007 6.13365 6.48701 5.96196 13.8044C5.96196 17.4591 7.31916 20.8603 9.70653 23.5011C13.6064 27.679 13.1077 32.5191 13.1077 32.5191C13.1077 33.4512 13.8762 34.2197 14.8083 34.2197H25.1835C26.1156 34.2197 26.8841 33.4512 26.9659 32.5191C26.9659 32.5191 26.3936 27.8016 30.2853 23.591C32.6727 21.032 34.038 17.6308 34.038 14.0579ZM23.5729 30.9003H16.4271C16.2554 27.4092 14.7265 24.008 12.2574 21.3753C10.3851 19.3314 9.45307 16.6987 9.45307 13.9761C9.53483 8.35929 13.8762 3.7726 19.4931 3.42922C25.6168 3.08583 30.7186 8.02408 30.7186 14.0579C30.7186 16.6987 29.6966 19.3314 27.8243 21.2854C25.2735 24.008 23.7446 27.4092 23.5729 30.9003Z" fill="#606164"/>
<path d="M22.976 36.5989H16.934C16.002 36.5989 15.2334 37.3674 15.2334 38.2995C15.2334 39.2316 16.002 40.0001 16.934 40.0001H22.976C23.9081 40.0001 24.6766 39.2316 24.6766 38.2995C24.6766 37.3674 23.9163 36.5989 22.976 36.5989Z" fill="#606164"/>
</g>
<defs>
<clipPath id="clip0_511_14953">
<rect width="40" height="40" fill="white"/>
</clipPath>
</defs>
</svg>
