<svg width="24" height="24" viewBox="0 0 24 24" fill="none" xmlns="http://www.w3.org/2000/svg">
<path d="M5.91187 21.691L5.99007 21.739L6.0802 21.7561C7.55645 22.0362 9.37844 22.3521 11.9842 22.358C14.5907 22.3639 16.5287 22.0371 17.9514 21.7392L18.0356 21.7216L18.1091 21.6769C21.4501 19.6421 23.5 15.8903 23.5 12C23.5 5.64873 18.3513 0.5 12 0.5C5.64873 0.5 0.5 5.64873 0.5 12C0.5 15.8916 2.53994 19.6216 5.91187 21.691Z" stroke="white"/>
<path d="M21.6794 7.92337H2.32053C3.91224 4.14866 7.64736 1.5 11.9999 1.5C16.3525 1.5 20.0876 4.14866 21.6794 7.92337ZM17.7281 7.49573C18.6946 7.49573 19.4781 6.71223 19.4781 5.74573C19.4781 4.77923 18.6946 3.99573 17.7281 3.99573C16.7617 3.99573 15.9781 4.77923 15.9781 5.74573C15.9781 6.71223 16.7617 7.49573 17.7281 7.49573Z" fill="white" stroke="white"/>
</svg>
