<svg width="24" height="24" viewBox="0 0 24 24" fill="none" xmlns="http://www.w3.org/2000/svg">
<path d="M5.91187 21.691L5.99007 21.739L6.0802 21.7561C7.55645 22.0362 9.37844 22.3521 11.9842 22.358C14.5907 22.3639 16.5287 22.0371 17.9514 21.7392L18.0356 21.7216L18.1091 21.6769C21.4501 19.6421 23.5 15.8903 23.5 12C23.5 5.64873 18.3513 0.5 12 0.5C5.64873 0.5 0.5 5.64873 0.5 12C0.5 15.8916 2.53994 19.6216 5.91187 21.691Z" stroke="#BCFF12"/>
<path d="M1.5472 8.40712L1.52443 8.47337H1.59448H22.4054H22.4755L22.4527 8.40712C20.9616 4.06821 16.845 0.95 11.9999 0.95C7.1549 0.95 3.03827 4.06821 1.5472 8.40712ZM18.9282 5.74573C18.9282 6.40847 18.3909 6.94573 17.7281 6.94573C17.0654 6.94573 16.5281 6.40847 16.5281 5.74573C16.5281 5.08299 17.0654 4.54573 17.7281 4.54573C18.3909 4.54573 18.9282 5.08299 18.9282 5.74573Z" fill="#BCFF12" stroke="#BCFF12" stroke-width="0.1"/>
</svg>
