<svg width="13" height="13" viewBox="0 0 13 13" fill="none" xmlns="http://www.w3.org/2000/svg">
<path d="M6.85355 7.64645C6.65829 7.45118 6.34171 7.45118 6.14645 7.64645L2.96447 10.8284C2.7692 11.0237 2.7692 11.3403 2.96447 11.5355C3.15973 11.7308 3.47631 11.7308 3.67157 11.5355L6.5 8.70711L9.32843 11.5355C9.52369 11.7308 9.84027 11.7308 10.0355 11.5355C10.2308 11.3403 10.2308 11.0237 10.0355 10.8284L6.85355 7.64645ZM7 13V8H6V13H7Z" fill="#C5C5C5"/>
<path d="M6.14645 5.35355C6.34171 5.54882 6.65829 5.54882 6.85355 5.35355L10.0355 2.17157C10.2308 1.97631 10.2308 1.65973 10.0355 1.46447C9.84027 1.2692 9.52369 1.2692 9.32843 1.46447L6.5 4.29289L3.67157 1.46447C3.47631 1.2692 3.15973 1.2692 2.96447 1.46447C2.7692 1.65973 2.7692 1.97631 2.96447 2.17157L6.14645 5.35355ZM6 0V5H7V0L6 0Z" fill="#C5C5C5"/>
<line y1="6.5" x2="13" y2="6.5" stroke="#C5C5C5"/>
</svg>
